<svg xmlns="http://www.w3.org/2000/svg" width="64" height="64" viewBox="0 0 64 64">
  <path id="Icon_awesome-globe-americas" data-name="Icon awesome-globe-americas" d="M32,.563a32,32,0,1,0,32,32A32,32,0,0,0,32,.563ZM42.618,46.7c-.5.5-1.031,1.026-1.459,1.455a3.083,3.083,0,0,0-.8,1.382c-.195.73-.352,1.468-.615,2.177L37.5,57.764a25.787,25.787,0,0,1-5.5.605V54.836c.218-1.628-.986-4.679-2.92-6.613a4.129,4.129,0,0,1-1.209-2.92v-4.13a4.115,4.115,0,0,0-2.124-3.609c-1.854-1.026-4.492-2.459-6.3-3.369a18.6,18.6,0,0,1-4.084-2.806l-.1-.093a14.812,14.812,0,0,1-2.33-2.676c-1.21-1.777-3.182-4.7-4.463-6.6A25.947,25.947,0,0,1,21.785,8.873l3.1,1.55a2.065,2.065,0,0,0,2.988-1.846V7.119a25.788,25.788,0,0,1,3.147-.312l3.652,3.652a2.065,2.065,0,0,1,0,2.92l-.605.6L32.73,15.316a1.033,1.033,0,0,0,0,1.459l.605.605a1.033,1.033,0,0,1,0,1.459L32.3,19.872a1.033,1.033,0,0,1-.73.3h-1.16a1.032,1.032,0,0,0-.72.293l-1.28,1.245a1.033,1.033,0,0,0-.2,1.2l2.012,4.025a1.032,1.032,0,0,1-.923,1.494H28.57a1.031,1.031,0,0,1-.676-.253l-1.2-1.04a2.067,2.067,0,0,0-2.006-.4L20.668,28.08a1.542,1.542,0,0,0-.2,2.843l1.43.715a8.738,8.738,0,0,0,3.911.924c1.357,0,2.915,3.521,4.129,4.129H38.55A4.131,4.131,0,0,1,41.47,37.9l1.766,1.766a3.936,3.936,0,0,1,1.152,2.783,6,6,0,0,1-1.77,4.255ZM53.806,34.917a3.1,3.1,0,0,1-1.826-1.286l-2.32-3.48a3.093,3.093,0,0,1,0-3.435l2.528-3.791a3.093,3.093,0,0,1,1.192-1.052l1.675-.837a25,25,0,0,1,2.516,14.822Z" transform="translate(0 -0.563)" fill="#d2761a"/>
</svg>
