<svg xmlns="http://www.w3.org/2000/svg" width="68.923" height="64" viewBox="0 0 68.923 64">
  <path id="Icon_ionic-ios-star" data-name="Icon ionic-ios-star" d="M68.558,25.529H45.927L39.05,5.006a2.492,2.492,0,0,0-4.677,0L27.5,25.529H4.712A2.469,2.469,0,0,0,2.25,27.99a1.809,1.809,0,0,0,.046.415,2.365,2.365,0,0,0,1.031,1.738l18.6,13.108L14.788,64.006a2.469,2.469,0,0,0,.846,2.769,2.381,2.381,0,0,0,1.385.6,3.016,3.016,0,0,0,1.538-.554L36.712,53.883,54.865,66.821a2.883,2.883,0,0,0,1.538.554,2.21,2.21,0,0,0,1.369-.6,2.438,2.438,0,0,0,.846-2.769L51.481,43.252,69.927,30.021l.446-.385a2.581,2.581,0,0,0,.8-1.646A2.605,2.605,0,0,0,68.558,25.529Z" transform="translate(-2.25 -3.375)" fill="#d2761a"/>
</svg>
