<svg xmlns="http://www.w3.org/2000/svg" width="68" height="64" viewBox="0 0 68 64">
  <path id="Icon_ionic-md-wifi" data-name="Icon ionic-md-wifi" d="M37.375,31.953a6.864,6.864,0,1,0,6.8,6.863A6.851,6.851,0,0,0,37.375,31.953Zm20.4,6.863a20.4,20.4,0,1,0-40.8,0,20.729,20.729,0,0,0,10.2,17.845l3.4-6.005a13.6,13.6,0,1,1,13.6,0l3.4,6.005A20.729,20.729,0,0,0,57.775,38.816ZM37.375,4.5a34.354,34.354,0,0,0-17,64l3.4-6.005a27.438,27.438,0,0,1,13.6-51.131,27.439,27.439,0,0,1,13.6,51.131l3.4,6.005a34.354,34.354,0,0,0-17-64Z" transform="translate(-3.375 -4.5)" fill="#d2761a"/>
</svg>
