<svg xmlns="http://www.w3.org/2000/svg" width="64" height="64" viewBox="0 0 64 64">
  <path id="Icon_awesome-app-store-ios" data-name="Icon awesome-app-store-ios" d="M57.143,2.25H6.857A6.859,6.859,0,0,0,0,9.107V59.393A6.859,6.859,0,0,0,6.857,66.25H57.143A6.859,6.859,0,0,0,64,59.393V9.107A6.859,6.859,0,0,0,57.143,2.25Zm-39,50.357A2.855,2.855,0,1,1,13.2,49.75l2.043-3.529A4.9,4.9,0,0,1,20.9,47.85Zm19.843-7.7H12a2.857,2.857,0,1,1,0-5.714h7.286l9.343-16.171L25.7,17.964a2.855,2.855,0,0,1,4.943-2.857l1.271,2.2,1.271-2.2a2.855,2.855,0,1,1,4.943,2.857L25.871,39.193h8.871c2.886,0,4.5,3.386,3.243,5.714Zm14.014,0H47.857l2.8,4.843a2.855,2.855,0,1,1-4.943,2.857q-7.05-12.193-10.571-18.3c-2.386-4.143-.686-8.286,1.014-9.686q2.807,4.864,8.414,14.571H52a2.857,2.857,0,0,1,0,5.714Z" transform="translate(0 -2.25)" fill="#d2761a"/>
</svg>
